HIERARCHY
ROOT hip
{
  OFFSET 0.00112043 5.09927 -9.65472
  CHANNELS 6 Xposition Yposition Zposition Zrotation Xrotation Yrotation
  JOINT abdomen
  {
    OFFSET 0 -1.186 -1.5018
    CHANNELS 3 Zrotation Xrotation Yrotation
    JOINT abdomen2
    {
      OFFSET 0 9.964 0.2134
      CHANNELS 3 Zrotation Xrotation Yrotation
      JOINT chest
      {
        OFFSET 0 13.134 -3.2573
        CHANNELS 3 Zrotation Xrotation Yrotation
        JOINT neck
        {
          OFFSET 0 20.686 -1.6905
          CHANNELS 3 Zrotation Xrotation Yrotation
          JOINT head
          {
            OFFSET 0 7.238 -0.1237
            CHANNELS 3 Zrotation Xrotation Yrotation
            End Site
            {
              OFFSET 0 0 0
            }
          }
        }
        JOINT lCollar
        {
          OFFSET 1.7069 20.075 5.0056
          CHANNELS 3 Zrotation Xrotation Yrotation
          JOINT lShldr
          {
            OFFSET 13.6458 -0.047 -4.849
            CHANNELS 3 Zrotation Xrotation Yrotation
            JOINT lForeArm
            {
              OFFSET 28.3255 -0.9759 2.2888
              CHANNELS 3 Zrotation Xrotation Yrotation
              JOINT lHand
              {
                OFFSET 22.1583 -0.53 10.8316
                CHANNELS 3 Zrotation Xrotation Yrotation
                JOINT lThumb1
                {
                  OFFSET 0.786 0.112 2.5817
                  CHANNELS 3 Zrotation Xrotation Yrotation
                  JOINT lThumb2
                  {
                    OFFSET 0.3601 -0.878 4.2331
                    CHANNELS 3 Zrotation Xrotation Yrotation
                    JOINT lThumb2_End
                    {
                      OFFSET 1.8127 -1.216 2.2227
                      CHANNELS 3 Zrotation Xrotation Yrotation
                      End Site
                      {
                        OFFSET 0.0181 -0.0122 0.0222
                      }
                    }
                  }
                }
                JOINT lCarpal1
                {
                  OFFSET 0.9571 1.114 1.7695
                  CHANNELS 3 Zrotation Xrotation Yrotation
                  JOINT lIndex1
                  {
                    OFFSET 4.1246 0.487 4.1451
                    CHANNELS 3 Zrotation Xrotation Yrotation
                    JOINT lIndex2
                    {
                      OFFSET 3.4052 -1.454 2.7682
                      CHANNELS 3 Zrotation Xrotation Yrotation
                      JOINT lIndex2_End
                      {
                        OFFSET 1.4531 -1.795 1.2713
                        CHANNELS 3 Zrotation Xrotation Yrotation
                        End Site
                        {
                          OFFSET 0.0145 -0.0179 0.0127
                        }
                      }
                    }
                  }
                  JOINT lMid1
                  {
                    OFFSET 5.6954 0.21 2.1184
                    CHANNELS 3 Zrotation Xrotation Yrotation
                    JOINT lMid2
                    {
                      OFFSET 3.9766 -1.54 2.3863
                      CHANNELS 3 Zrotation Xrotation Yrotation
                      JOINT lMid2_End
                      {
                        OFFSET 1.4042 -1.926 1.125
                        CHANNELS 3 Zrotation Xrotation Yrotation
                        End Site
                        {
                          OFFSET 0.014 -0.0193 0.0113
                        }
                      }
                    }
                  }
                }
                JOINT lCarpal2
                {
                  OFFSET 2.0956 0.66 -0.3894
                  CHANNELS 3 Zrotation Xrotation Yrotation
                  JOINT lRing1
                  {
                    OFFSET 5.0395 -0.09 2.4971
                    CHANNELS 3 Zrotation Xrotation Yrotation
                    JOINT lRing2
                    {
                      OFFSET 3.7921 -1.552 1.4806
                      CHANNELS 3 Zrotation Xrotation Yrotation
                      JOINT lRing2_End
                      {
                        OFFSET 1.4655 -1.808 0.9609
                        CHANNELS 3 Zrotation Xrotation Yrotation
                        End Site
                        {
                          OFFSET 0.0147 -0.0181 0.0096
                        }
                      }
                    }
                  }
                  JOINT lPinky1
                  {
                    OFFSET 4.9141 -1.269 0.3591
                    CHANNELS 3 Zrotation Xrotation Yrotation
                    JOINT lPinky2
                    {
                      OFFSET 3.1477 -1.685 0.8462
                      CHANNELS 3 Zrotation Xrotation Yrotation
                      JOINT lPinky2_End
                      {
                        OFFSET 0.8055 -1.585 0.7955
                        CHANNELS 3 Zrotation Xrotation Yrotation
                        End Site
                        {
                          OFFSET 0.0081 -0.0158 0.008
                        }
                      }
                    }
                  }
                }
              }
            }
          }
        }
        JOINT rCollar
        {
          OFFSET -1.7069 20.075 5.0056
          CHANNELS 3 Zrotation Xrotation Yrotation
          JOINT rShldr
          {
            OFFSET -13.6458 -0.047 -4.849
            CHANNELS 3 Zrotation Xrotation Yrotation
            JOINT rForeArm
            {
              OFFSET -28.3255 -0.9759 2.2888
              CHANNELS 3 Zrotation Xrotation Yrotation
              JOINT rHand
              {
                OFFSET -22.1583 -0.53 10.8316
                CHANNELS 3 Zrotation Xrotation Yrotation
                JOINT rThumb1
                {
                  OFFSET -0.786 0.112 2.5817
                  CHANNELS 3 Zrotation Xrotation Yrotation
                  JOINT rThumb2
                  {
                    OFFSET -0.3601 -0.878 4.2331
                    CHANNELS 3 Zrotation Xrotation Yrotation
                    JOINT rThumb2_End
                    {
                      OFFSET -1.8127 -1.216 2.2227
                      CHANNELS 3 Zrotation Xrotation Yrotation
                      End Site
                      {
                        OFFSET -0.0181 -0.0122 0.0222
                      }
                    }
                  }
                }
                JOINT rCarpal1
                {
                  OFFSET -0.9571 1.114 1.7695
                  CHANNELS 3 Zrotation Xrotation Yrotation
                  JOINT rIndex1
                  {
                    OFFSET -4.1246 0.487 4.1451
                    CHANNELS 3 Zrotation Xrotation Yrotation
                    JOINT rIndex2
                    {
                      OFFSET -3.4052 -1.454 2.7682
                      CHANNELS 3 Zrotation Xrotation Yrotation
                      JOINT rIndex2_End
                      {
                        OFFSET -1.4531 -1.795 1.2713
                        CHANNELS 3 Zrotation Xrotation Yrotation
                        End Site
                        {
                          OFFSET -0.0145 -0.018 0.0127
                        }
                      }
                    }
                  }
                  JOINT rMid1
                  {
                    OFFSET -5.6954 0.21 2.1184
                    CHANNELS 3 Zrotation Xrotation Yrotation
                    JOINT rMid2
                    {
                      OFFSET -3.9766 -1.54 2.3863
                      CHANNELS 3 Zrotation Xrotation Yrotation
                      JOINT rMid2_End
                      {
                        OFFSET -1.4042 -1.926 1.125
                        CHANNELS 3 Zrotation Xrotation Yrotation
                        End Site
                        {
                          OFFSET -0.014 -0.0193 0.0113
                        }
                      }
                    }
                  }
                }
                JOINT rCarpal2
                {
                  OFFSET -2.0956 0.66 -0.3894
                  CHANNELS 3 Zrotation Xrotation Yrotation
                  JOINT rRing1
                  {
                    OFFSET -5.0395 -0.09 2.4971
                    CHANNELS 3 Zrotation Xrotation Yrotation
                    JOINT rRing2
                    {
                      OFFSET -3.7921 -1.552 1.4806
                      CHANNELS 3 Zrotation Xrotation Yrotation
                      JOINT rRing2_End
                      {
                        OFFSET -1.4655 -1.808 0.9609
                        CHANNELS 3 Zrotation Xrotation Yrotation
                        End Site
                        {
                          OFFSET -0.0147 -0.0181 0.0096
                        }
                      }
                    }
                  }
                  JOINT rPinky1
                  {
                    OFFSET -4.9141 -1.269 0.3592
                    CHANNELS 3 Zrotation Xrotation Yrotation
                    JOINT rPinky2
                    {
                      OFFSET -3.1477 -1.685 0.8462
                      CHANNELS 3 Zrotation Xrotation Yrotation
                      JOINT rPinky2_End
                      {
                        OFFSET -0.8055 -1.585 0.7955
                        CHANNELS 3 Zrotation Xrotation Yrotation
                        End Site
                        {
                          OFFSET -0.0081 -0.0158 0.008
                        }
                      }
                    }
                  }
                }
              }
            }
          }
        }
      }
    }
  }
  JOINT lThigh
  {
    OFFSET 8.367 -8.2066 0.5982
    CHANNELS 3 Zrotation Xrotation Yrotation
    JOINT lShin
    {
      OFFSET 2.1923 -43.463 -0.4932
      CHANNELS 3 Zrotation Xrotation Yrotation
      JOINT lFoot
      {
        OFFSET 0.7333 -45.8593 -2.6451
        CHANNELS 3 Zrotation Xrotation Yrotation
        End Site
        {
          OFFSET 2.6618 -4.2699 12.3931
        }
      }
    }
  }
  JOINT rThigh
  {
    OFFSET -8.367 -8.2066 0.5982
    CHANNELS 3 Zrotation Xrotation Yrotation
    JOINT rShin
    {
      OFFSET -2.1923 -43.463 -0.4931
      CHANNELS 3 Zrotation Xrotation Yrotation
      JOINT rFoot
      {
        OFFSET -0.7333 -45.8593 -2.6451
        CHANNELS 3 Zrotation Xrotation Yrotation
        End Site
        {
          OFFSET -2.6618 -4.2699 12.3931
        }
      }
    }
  }
}
MOTION
Frames:	4
Frame Time:	0.0333333
0 91.7903 2.51682 0 0 -0 0 0 -0 0 0 -0 0 0 -0 0 0 -0 0 0 -0 0 0 -0 1.66051 0.0835086 5.75766 -0.0175111 0.895433 15.7816 7.95139e-016 -1.98785e-016 -0 5.46658e-016 -3.97569e-016 -0 5.96354e-016 0 -0 3.97569e-016 1.98785e-016 9.54166e-015 1.49089e-016 -3.97569e-016 -0 6.4605e-016 0 3.18055e-015 5.96354e-016 0 3.18055e-015 8.94531e-016 -1.98785e-016 6.36111e-015 6.4605e-016 0 3.18055e-015 5.96354e-016 0 3.18055e-015 8.94531e-016 -1.98785e-016 6.36111e-015 1.49089e-016 -3.97569e-016 -0 6.4605e-016 0 3.18055e-015 5.96354e-016 0 3.18055e-015 8.94531e-016 -1.98785e-016 6.36111e-015 6.4605e-016 0 3.18055e-015 5.96354e-016 0 3.18055e-015 8.94531e-016 -1.98785e-016 6.36111e-015 0 0 -0 -1.4496 0.0636048 -5.0245 -1.74811 1.20616 -16.8394 -1.19271e-015 1.98785e-016 -3.18055e-015 -3.97569e-016 1.98785e-016 -3.18055e-015 -2.98177e-016 1.98785e-016 -3.18055e-015 -2.98177e-016 3.97569e-016 -0 4.96962e-016 0 -6.36111e-015 -9.93923e-017 3.97569e-016 -0 -8.94531e-016 5.96354e-016 -0 -3.97569e-016 3.97569e-016 -0 -9.93923e-017 3.97569e-016 -0 -8.94531e-016 5.96354e-016 -0 -3.97569e-016 3.97569e-016 -0 4.96962e-016 0 -6.36111e-015 -9.93923e-017 3.97569e-016 -0 -8.94531e-016 5.96354e-016 -0 -3.97569e-016 3.97569e-016 -0 -9.93923e-017 3.97569e-016 -0 -8.94531e-016 5.96354e-016 -0 -3.97569e-016 3.97569e-016 -0 -4.66111 -0.998717 0.12318 0.00986924 1.54847 0.176523 4.65186 -0.572283 -0.254274 4.66111 -0.998765 -0.123176 -0.00986867 1.54869 -0.176537 -4.65186 -0.572453 0.25427 
-36.3502 7.46056 39.8593 -7.01671e-015 7.01671e-015 180 -0.146281 -0.0734239 -4.35634 -0.297716 -0.135524 -8.71286 -0.297716 -0.135524 -8.71286 -15.4414 -13.5144 -32.6943 0.270929 -0.0720536 -0.151948 -27.1949 -0.650966 -1.86838 -22.7571 6.081 -19.7834 -26.4984 27.0223 -62.8716 -32.0468 12.0041 2.86434 -1.39149e-015 -3.18055e-015 -2.5842e-015 -9.6443e-007 3.69425e-007 -1.33712e-006 -1.33712e-006 2.47432e-007 9.6443e-007 -2.98177e-015 0 -3.13086e-015 -9.93923e-016 -3.18055e-015 -3.03147e-015 -9.6443e-007 3.69425e-007 -1.33712e-006 -1.33712e-006 2.47432e-007 9.6443e-007 -9.93923e-016 -3.18055e-015 -3.03147e-015 -9.6443e-007 3.69425e-007 -1.33712e-006 -1.33712e-006 2.47432e-007 9.6443e-007 -2.98177e-015 0 -3.13086e-015 -9.93923e-016 -3.18055e-015 -3.03147e-015 -9.6443e-007 3.69425e-007 -1.33712e-006 -1.33712e-006 2.47432e-007 9.6443e-007 -9.93923e-016 -3.18055e-015 -3.03147e-015 -9.6443e-007 3.69425e-007 -1.33712e-006 -1.33712e-006 2.47432e-007 9.6443e-007 8.57868 -0.258811 0.406918 53.6946 -25.5125 42.6106 25.5442 7.5647 -2.75332 6.49223 2.60876 0.0254004 -0 -1.59028e-015 -0 3.44087e-006 -5.69088e-006 -2.95453e-006 -6.35846e-007 -2.58786e-006 1.83133e-006 -0 -1.59028e-015 -0 -3.18055e-015 -3.18055e-015 -0 3.44087e-006 -5.69088e-006 -2.95453e-006 -6.35846e-007 -2.58786e-006 1.83133e-006 -3.18055e-015 -3.18055e-015 -0 3.44087e-006 -5.69088e-006 -2.95453e-006 -6.35846e-007 -2.58786e-006 1.83133e-006 -0 -1.59028e-015 -0 -3.18055e-015 -3.18055e-015 -0 3.44087e-006 -5.69088e-006 -2.95453e-006 -6.35846e-007 -2.58786e-006 1.83133e-006 -3.18055e-015 -3.18055e-015 -0 3.44087e-006 -5.69088e-006 -2.95453e-006 -6.35846e-007 -2.58786e-006 1.83133e-006 -154.514 -49.2065 -156.571 16.0224 89.4913 -18.3149 9.2123 16.8548 1.86657 -85.1289 -75.4042 -142.829 121.156 56.7764 -117.36 -8.45828 24.4864 -1.76452 
-36.3502 7.46056 39.8593 -7.01671e-015 7.01671e-015 180 -0.146281 -0.0734239 -4.35634 -0.297716 -0.135524 -8.71286 -0.297716 -0.135524 -8.71286 -15.4414 -13.5144 -32.6943 0.547385 -0.105614 -0.281779 -27.1949 -0.650966 -1.86838 -22.7571 6.08099 -19.7834 -26.1374 26.628 -62.9824 -32.0468 12.0042 2.86433 1.49089e-015 -3.18055e-015 -4.82053e-015 -1.79419e-007 2.37356e-006 2.07208e-006 8.89948e-007 1.25131e-006 1.51512e-006 -3.97569e-016 -3.18055e-015 -5.49143e-015 4.96962e-016 -3.18055e-015 1.68967e-015 -1.79419e-007 2.37356e-006 2.07208e-006 8.89948e-007 1.25131e-006 1.51512e-006 4.96962e-016 -3.18055e-015 1.68967e-015 -1.79419e-007 2.37356e-006 2.07208e-006 8.89948e-007 1.25131e-006 1.51512e-006 -3.97569e-016 -3.18055e-015 -5.49143e-015 4.96962e-016 -3.18055e-015 1.68967e-015 -1.79419e-007 2.37356e-006 2.07208e-006 8.89948e-007 1.25131e-006 1.51512e-006 4.96962e-016 -3.18055e-015 1.68967e-015 -1.79419e-007 2.37356e-006 2.07208e-006 8.89948e-007 1.25131e-006 1.51512e-006 8.57868 -0.258811 0.406918 53.7357 -25.4619 42.4335 25.6448 7.20672 -2.45594 6.49223 2.60877 0.0253992 1.59028e-015 -4.77083e-015 1.59028e-014 2.20695e-030 -7.95139e-015 1.59028e-014 -3.18055e-015 -3.18055e-015 9.54166e-015 -0 0 6.36111e-015 7.95139e-015 -3.18055e-015 2.54444e-014 -3.18055e-015 -3.18055e-015 6.36111e-015 -1.59028e-015 0 -3.18055e-015 7.95139e-015 -3.18055e-015 2.54444e-014 -3.18055e-015 -3.18055e-015 6.36111e-015 -1.59028e-015 0 -3.18055e-015 -0 0 6.36111e-015 7.95139e-015 -3.18055e-015 2.54444e-014 -3.18055e-015 -3.18055e-015 6.36111e-015 -1.59028e-015 0 -3.18055e-015 7.95139e-015 -3.18055e-015 2.54444e-014 -3.18055e-015 -3.18055e-015 6.36111e-015 -1.59028e-015 0 -3.18055e-015 -154.514 -49.2065 -156.571 16.0221 89.4913 -18.3146 9.2123 16.8549 1.86657 -85.1287 -75.4042 -142.829 121.156 56.7764 -117.36 -8.4583 24.4864 -1.76451 
-36.3502 7.46056 39.8593 -7.01671e-015 7.01671e-015 180 -0.146281 -0.0734239 -4.35634 -0.297716 -0.135524 -8.71286 -0.297716 -0.135524 -8.71286 -15.4414 -13.5144 -32.6943 0.823943 -0.139836 -0.411552 -27.1949 -0.650966 -1.86838 -22.7571 6.081 -19.7834 -25.7779 26.2324 -63.0903 -32.0468 12.0042 2.86433 -1.47753e-006 -2.21917e-006 1.22646e-006 1.02809e-015 3.18055e-015 -1.28045e-015 1.47753e-006 2.21917e-006 -1.22646e-006 1.43187e-015 3.18055e-015 -6.0474e-015 -1.47753e-006 -2.21917e-006 1.22646e-006 3.44767e-016 -3.18055e-015 4.84926e-015 1.47753e-006 2.21917e-006 -1.22646e-006 -1.47753e-006 -2.21917e-006 1.22646e-006 3.44767e-016 -3.18055e-015 4.84926e-015 1.47753e-006 2.21917e-006 -1.22646e-006 1.43187e-015 3.18055e-015 -6.0474e-015 -1.47753e-006 -2.21917e-006 1.22646e-006 3.44767e-016 -3.18055e-015 4.84926e-015 1.47753e-006 2.21917e-006 -1.22646e-006 -1.47753e-006 -2.21917e-006 1.22646e-006 3.44767e-016 -3.18055e-015 4.84926e-015 1.47753e-006 2.21917e-006 -1.22646e-006 8.57868 -0.258811 0.406918 53.7769 -25.4114 42.2564 25.7474 6.84864 -2.15765 6.49224 2.60876 0.0254033 -7.51569e-007 3.25109e-006 -1.45394e-006 3.18055e-015 4.77083e-015 -0 1.59028e-015 3.18055e-015 -6.36111e-015 -3.53113e-031 -3.18055e-015 -6.36111e-015 -7.51569e-007 3.25109e-006 -1.45394e-006 1.76556e-031 1.59028e-015 -6.36111e-015 1.59028e-015 4.77083e-015 -3.18055e-015 -7.51569e-007 3.25109e-006 -1.45394e-006 1.76556e-031 1.59028e-015 -6.36111e-015 1.59028e-015 4.77083e-015 -3.18055e-015 -3.53113e-031 -3.18055e-015 -6.36111e-015 -7.51569e-007 3.25109e-006 -1.45394e-006 1.76556e-031 1.59028e-015 -6.36111e-015 1.59028e-015 4.77083e-015 -3.18055e-015 -7.51569e-007 3.25109e-006 -1.45394e-006 1.76556e-031 1.59028e-015 -6.36111e-015 1.59028e-015 4.77083e-015 -3.18055e-015 -154.514 -49.2065 -156.571 16.0221 89.4913 -18.3146 9.2123 16.8549 1.86657 -85.1287 -75.4042 -142.829 121.156 56.7764 -117.36 -8.4583 24.4864 -1.76451 
